M48
;DRILL file {KiCad 4.0.2-stable} date 14/03/2016 9:25:45 PM
;FORMAT={-:-/ absolute / inch / decimal}
FMAT,2
INCH,TZ
T1C0.031
T2C0.040
T3C0.060
T4C0.138
%
G90
G05
M72
T1
X6.2Y-2.85
X6.2Y-2.9996
X6.375Y-3.55
X6.375Y-3.65
X6.375Y-3.75
X6.375Y-3.85
X6.375Y-3.95
X6.375Y-4.05
X6.375Y-4.15
X6.375Y-4.25
X6.375Y-4.35
X6.375Y-4.45
X6.375Y-4.55
X6.375Y-4.65
X6.375Y-4.75
X6.375Y-4.85
X6.5531Y-3.375
X6.75Y-3.375
X6.975Y-3.55
X6.975Y-3.65
X6.975Y-3.75
X6.975Y-3.85
X6.975Y-3.95
X6.975Y-4.05
X6.975Y-4.15
X6.975Y-4.25
X6.975Y-4.35
X6.975Y-4.45
X6.975Y-4.55
X6.975Y-4.65
X6.975Y-4.75
X6.975Y-4.85
T2
X5.925Y-3.65
X5.925Y-3.75
X5.925Y-3.85
X5.925Y-3.95
X5.925Y-4.05
X5.925Y-4.15
X5.925Y-4.25
X5.925Y-4.35
X6.6Y-2.575
X6.6Y-2.675
X6.6Y-2.775
X6.6Y-2.875
X6.6Y-2.975
X6.6Y-3.075
X6.7Y-2.575
X6.7Y-2.675
X6.7Y-2.775
X6.7Y-2.875
X6.7Y-2.975
X6.7Y-3.075
X7.575Y-3.25
X7.575Y-3.35
X7.575Y-3.45
X7.575Y-3.55
X7.575Y-3.65
X7.575Y-3.75
X7.575Y-3.85
X7.575Y-3.95
X7.575Y-4.05
X7.575Y-4.15
X7.575Y-4.25
X7.575Y-4.35
X7.575Y-4.45
X7.575Y-4.55
X7.575Y-4.65
X7.575Y-4.75
T3
X7.075Y-2.575
X7.275Y-2.575
T4
X5.925Y-2.525
X5.925Y-5.
X7.575Y-2.525
X7.575Y-5.
T0
M30
