G04 #@! TF.FileFunction,Copper,L2,Bot,Signal*
%FSLAX46Y46*%
G04 Gerber Fmt 4.6, Leading zero omitted, Abs format (unit mm)*
G04 Created by KiCad (PCBNEW 4.0.2-stable) date 14/03/2016 9:25:42 PM*
%MOMM*%
G01*
G04 APERTURE LIST*
%ADD10C,0.100000*%
%ADD11C,0.300000*%
%ADD12R,1.300000X1.300000*%
%ADD13C,1.300000*%
%ADD14R,2.540000X2.540000*%
%ADD15C,2.540000*%
%ADD16R,1.727200X1.727200*%
%ADD17O,1.727200X1.727200*%
%ADD18R,2.032000X1.727200*%
%ADD19O,2.032000X1.727200*%
%ADD20O,1.600000X1.600000*%
%ADD21C,7.000000*%
%ADD22C,0.508000*%
%ADD23C,0.254000*%
G04 APERTURE END LIST*
D10*
D11*
X150709285Y-121185714D02*
X150780714Y-121257143D01*
X150995000Y-121328571D01*
X151137857Y-121328571D01*
X151352142Y-121257143D01*
X151495000Y-121114286D01*
X151566428Y-120971429D01*
X151637857Y-120685714D01*
X151637857Y-120471429D01*
X151566428Y-120185714D01*
X151495000Y-120042857D01*
X151352142Y-119900000D01*
X151137857Y-119828571D01*
X150995000Y-119828571D01*
X150780714Y-119900000D01*
X150709285Y-119971429D01*
X149423571Y-120328571D02*
X149423571Y-121328571D01*
X150066428Y-120328571D02*
X150066428Y-121114286D01*
X149995000Y-121257143D01*
X149852142Y-121328571D01*
X149637857Y-121328571D01*
X149495000Y-121257143D01*
X149423571Y-121185714D01*
D12*
X157480000Y-72390000D03*
D13*
X157480000Y-76190000D03*
D12*
X171450000Y-85725000D03*
D13*
X166450000Y-85725000D03*
D14*
X179705000Y-65405000D03*
D15*
X184785000Y-65405000D03*
D16*
X167640000Y-65405000D03*
D17*
X170180000Y-65405000D03*
X167640000Y-67945000D03*
X170180000Y-67945000D03*
X167640000Y-70485000D03*
X170180000Y-70485000D03*
X167640000Y-73025000D03*
X170180000Y-73025000D03*
X167640000Y-75565000D03*
X170180000Y-75565000D03*
X167640000Y-78105000D03*
X170180000Y-78105000D03*
D18*
X150495000Y-110490000D03*
D19*
X150495000Y-107950000D03*
X150495000Y-105410000D03*
X150495000Y-102870000D03*
X150495000Y-100330000D03*
X150495000Y-97790000D03*
X150495000Y-95250000D03*
X150495000Y-92710000D03*
D18*
X192405000Y-82550000D03*
D19*
X192405000Y-85090000D03*
X192405000Y-87630000D03*
X192405000Y-90170000D03*
X192405000Y-92710000D03*
X192405000Y-95250000D03*
X192405000Y-97790000D03*
X192405000Y-100330000D03*
X192405000Y-102870000D03*
X192405000Y-105410000D03*
X192405000Y-107950000D03*
X192405000Y-110490000D03*
X192405000Y-113030000D03*
X192405000Y-115570000D03*
X192405000Y-118110000D03*
X192405000Y-120650000D03*
D20*
X161925000Y-90170000D03*
X161925000Y-92710000D03*
X161925000Y-95250000D03*
X161925000Y-97790000D03*
X161925000Y-100330000D03*
X161925000Y-102870000D03*
X161925000Y-105410000D03*
X161925000Y-107950000D03*
X161925000Y-110490000D03*
X161925000Y-113030000D03*
X161925000Y-115570000D03*
X161925000Y-118110000D03*
X161925000Y-120650000D03*
X161925000Y-123190000D03*
X177165000Y-123190000D03*
X177165000Y-120650000D03*
X177165000Y-118110000D03*
X177165000Y-115570000D03*
X177165000Y-113030000D03*
X177165000Y-110490000D03*
X177165000Y-107950000D03*
X177165000Y-105410000D03*
X177165000Y-102870000D03*
X177165000Y-100330000D03*
X177165000Y-97790000D03*
X177165000Y-95250000D03*
X177165000Y-92710000D03*
X177165000Y-90170000D03*
D21*
X150495000Y-64135000D03*
X192405000Y-64135000D03*
X150495000Y-127000000D03*
X192405000Y-127000000D03*
D22*
X177165000Y-95250000D02*
X171450000Y-95250000D01*
X167640000Y-91440000D02*
X167640000Y-78105000D01*
X171450000Y-95250000D02*
X167640000Y-91440000D01*
X177165000Y-92710000D02*
X172720000Y-92710000D01*
X170180000Y-90170000D02*
X170180000Y-78105000D01*
X172720000Y-92710000D02*
X170180000Y-90170000D01*
X150495000Y-110490000D02*
X161925000Y-110490000D01*
X150495000Y-107950000D02*
X161925000Y-107950000D01*
X150495000Y-105410000D02*
X161925000Y-105410000D01*
X150495000Y-102870000D02*
X161925000Y-102870000D01*
X150495000Y-100330000D02*
X161925000Y-100330000D01*
X150495000Y-97790000D02*
X161925000Y-97790000D01*
X150495000Y-95250000D02*
X161925000Y-95250000D01*
X150495000Y-92710000D02*
X161925000Y-92710000D01*
X177165000Y-97790000D02*
X192405000Y-82550000D01*
X177165000Y-100330000D02*
X192405000Y-85090000D01*
X177165000Y-102870000D02*
X192405000Y-87630000D01*
X177165000Y-105410000D02*
X192405000Y-90170000D01*
X177165000Y-107950000D02*
X192405000Y-92710000D01*
X177165000Y-110490000D02*
X192405000Y-95250000D01*
X177165000Y-113030000D02*
X192405000Y-97790000D01*
X177165000Y-115570000D02*
X192405000Y-100330000D01*
X177165000Y-118110000D02*
X192405000Y-102870000D01*
X177165000Y-120650000D02*
X192405000Y-105410000D01*
X177165000Y-123190000D02*
X192405000Y-107950000D01*
X161925000Y-123190000D02*
X161925000Y-124460000D01*
X177800000Y-125095000D02*
X192405000Y-110490000D01*
X162560000Y-125095000D02*
X177800000Y-125095000D01*
X161925000Y-124460000D02*
X162560000Y-125095000D01*
X161925000Y-120650000D02*
X160655000Y-120650000D01*
X179070000Y-126365000D02*
X192405000Y-113030000D01*
X161290000Y-126365000D02*
X179070000Y-126365000D01*
X160020000Y-125095000D02*
X161290000Y-126365000D01*
X160020000Y-121285000D02*
X160020000Y-125095000D01*
X160655000Y-120650000D02*
X160020000Y-121285000D01*
X161925000Y-118110000D02*
X160020000Y-118110000D01*
X180340000Y-127635000D02*
X192405000Y-115570000D01*
X160655000Y-127635000D02*
X180340000Y-127635000D01*
X158750000Y-125730000D02*
X160655000Y-127635000D01*
X158750000Y-119380000D02*
X158750000Y-125730000D01*
X160020000Y-118110000D02*
X158750000Y-119380000D01*
X161925000Y-115570000D02*
X159385000Y-115570000D01*
X181610000Y-128905000D02*
X192405000Y-118110000D01*
X160020000Y-128905000D02*
X181610000Y-128905000D01*
X157480000Y-126365000D02*
X160020000Y-128905000D01*
X157480000Y-117475000D02*
X157480000Y-126365000D01*
X159385000Y-115570000D02*
X157480000Y-117475000D01*
X161925000Y-113030000D02*
X158115000Y-113030000D01*
X182880000Y-130175000D02*
X192405000Y-120650000D01*
X158750000Y-130175000D02*
X182880000Y-130175000D01*
X156210000Y-127635000D02*
X158750000Y-130175000D01*
X156210000Y-114935000D02*
X156210000Y-127635000D01*
X158115000Y-113030000D02*
X156210000Y-114935000D01*
D23*
G36*
X190065771Y-60627474D02*
X188901562Y-61789653D01*
X188270720Y-63308889D01*
X188269284Y-64953894D01*
X188897474Y-66474229D01*
X190059653Y-67638438D01*
X191578889Y-68269280D01*
X193223894Y-68270716D01*
X194744229Y-67642526D01*
X195908438Y-66480347D01*
X196035294Y-66174844D01*
X195512008Y-124259553D01*
X194750347Y-123496562D01*
X193231111Y-122865720D01*
X191586106Y-122864284D01*
X191350673Y-122961563D01*
X192173030Y-122139206D01*
X192220255Y-122148600D01*
X192589745Y-122148600D01*
X193163234Y-122034526D01*
X193649415Y-121709670D01*
X193974271Y-121223489D01*
X194088345Y-120650000D01*
X193974271Y-120076511D01*
X193649415Y-119590330D01*
X193334634Y-119380000D01*
X193649415Y-119169670D01*
X193974271Y-118683489D01*
X194088345Y-118110000D01*
X193974271Y-117536511D01*
X193649415Y-117050330D01*
X193334634Y-116840000D01*
X193649415Y-116629670D01*
X193974271Y-116143489D01*
X194088345Y-115570000D01*
X193974271Y-114996511D01*
X193649415Y-114510330D01*
X193334634Y-114300000D01*
X193649415Y-114089670D01*
X193974271Y-113603489D01*
X194088345Y-113030000D01*
X193974271Y-112456511D01*
X193649415Y-111970330D01*
X193334634Y-111760000D01*
X193649415Y-111549670D01*
X193974271Y-111063489D01*
X194088345Y-110490000D01*
X193974271Y-109916511D01*
X193649415Y-109430330D01*
X193334634Y-109220000D01*
X193649415Y-109009670D01*
X193974271Y-108523489D01*
X194088345Y-107950000D01*
X193974271Y-107376511D01*
X193649415Y-106890330D01*
X193334634Y-106680000D01*
X193649415Y-106469670D01*
X193974271Y-105983489D01*
X194088345Y-105410000D01*
X193974271Y-104836511D01*
X193649415Y-104350330D01*
X193334634Y-104140000D01*
X193649415Y-103929670D01*
X193974271Y-103443489D01*
X194088345Y-102870000D01*
X193974271Y-102296511D01*
X193649415Y-101810330D01*
X193334634Y-101600000D01*
X193649415Y-101389670D01*
X193974271Y-100903489D01*
X194088345Y-100330000D01*
X193974271Y-99756511D01*
X193649415Y-99270330D01*
X193334634Y-99060000D01*
X193649415Y-98849670D01*
X193974271Y-98363489D01*
X194088345Y-97790000D01*
X193974271Y-97216511D01*
X193649415Y-96730330D01*
X193334634Y-96520000D01*
X193649415Y-96309670D01*
X193974271Y-95823489D01*
X194088345Y-95250000D01*
X193974271Y-94676511D01*
X193649415Y-94190330D01*
X193334634Y-93980000D01*
X193649415Y-93769670D01*
X193974271Y-93283489D01*
X194088345Y-92710000D01*
X193974271Y-92136511D01*
X193649415Y-91650330D01*
X193334634Y-91440000D01*
X193649415Y-91229670D01*
X193974271Y-90743489D01*
X194088345Y-90170000D01*
X193974271Y-89596511D01*
X193649415Y-89110330D01*
X193334634Y-88900000D01*
X193649415Y-88689670D01*
X193974271Y-88203489D01*
X194088345Y-87630000D01*
X193974271Y-87056511D01*
X193649415Y-86570330D01*
X193334634Y-86360000D01*
X193649415Y-86149670D01*
X193974271Y-85663489D01*
X194088345Y-85090000D01*
X193974271Y-84516511D01*
X193649415Y-84030330D01*
X193635087Y-84020757D01*
X193656317Y-84016762D01*
X193872441Y-83877690D01*
X194017431Y-83665490D01*
X194068440Y-83413600D01*
X194068440Y-81686400D01*
X194024162Y-81451083D01*
X193885090Y-81234959D01*
X193672890Y-81089969D01*
X193421000Y-81038960D01*
X191389000Y-81038960D01*
X191153683Y-81083238D01*
X190937559Y-81222310D01*
X190792569Y-81434510D01*
X190741560Y-81686400D01*
X190741560Y-82956204D01*
X178598191Y-95099573D01*
X178518880Y-94700849D01*
X178207811Y-94235302D01*
X177825725Y-93980000D01*
X178207811Y-93724698D01*
X178518880Y-93259151D01*
X178628113Y-92710000D01*
X178518880Y-92160849D01*
X178207811Y-91695302D01*
X177825725Y-91440000D01*
X178207811Y-91184698D01*
X178518880Y-90719151D01*
X178628113Y-90170000D01*
X178518880Y-89620849D01*
X178207811Y-89155302D01*
X177742264Y-88844233D01*
X177193113Y-88735000D01*
X177136887Y-88735000D01*
X176587736Y-88844233D01*
X176122189Y-89155302D01*
X175811120Y-89620849D01*
X175701887Y-90170000D01*
X175811120Y-90719151D01*
X176122189Y-91184698D01*
X176504275Y-91440000D01*
X176122189Y-91695302D01*
X176038200Y-91821000D01*
X173088236Y-91821000D01*
X171069000Y-89801764D01*
X171069000Y-87022440D01*
X172100000Y-87022440D01*
X172335317Y-86978162D01*
X172551441Y-86839090D01*
X172696431Y-86626890D01*
X172747440Y-86375000D01*
X172747440Y-85075000D01*
X172703162Y-84839683D01*
X172564090Y-84623559D01*
X172351890Y-84478569D01*
X172100000Y-84427560D01*
X171069000Y-84427560D01*
X171069000Y-79308067D01*
X171239670Y-79194029D01*
X171564526Y-78707848D01*
X171678600Y-78134359D01*
X171678600Y-78075641D01*
X171564526Y-77502152D01*
X171239670Y-77015971D01*
X170968828Y-76835000D01*
X171239670Y-76654029D01*
X171564526Y-76167848D01*
X171678600Y-75594359D01*
X171678600Y-75535641D01*
X171564526Y-74962152D01*
X171239670Y-74475971D01*
X170968839Y-74295008D01*
X171386821Y-73913490D01*
X171634968Y-73384027D01*
X171514469Y-73152000D01*
X170307000Y-73152000D01*
X170307000Y-73172000D01*
X170053000Y-73172000D01*
X170053000Y-73152000D01*
X167767000Y-73152000D01*
X167767000Y-73172000D01*
X167513000Y-73172000D01*
X167513000Y-73152000D01*
X166305531Y-73152000D01*
X166185032Y-73384027D01*
X166433179Y-73913490D01*
X166851161Y-74295008D01*
X166580330Y-74475971D01*
X166255474Y-74962152D01*
X166141400Y-75535641D01*
X166141400Y-75594359D01*
X166255474Y-76167848D01*
X166580330Y-76654029D01*
X166851172Y-76835000D01*
X166580330Y-77015971D01*
X166255474Y-77502152D01*
X166141400Y-78075641D01*
X166141400Y-78134359D01*
X166255474Y-78707848D01*
X166580330Y-79194029D01*
X166751000Y-79308067D01*
X166751000Y-84469164D01*
X166630922Y-84427378D01*
X166120572Y-84456917D01*
X165786271Y-84595389D01*
X165730590Y-84825984D01*
X166450000Y-85545395D01*
X166464143Y-85531253D01*
X166643748Y-85710858D01*
X166629605Y-85725000D01*
X166643748Y-85739143D01*
X166464143Y-85918748D01*
X166450000Y-85904605D01*
X165730590Y-86624016D01*
X165786271Y-86854611D01*
X166269078Y-87022622D01*
X166751000Y-86994728D01*
X166751000Y-91440000D01*
X166818671Y-91780206D01*
X167011382Y-92068618D01*
X170821382Y-95878618D01*
X171109795Y-96071330D01*
X171450000Y-96139000D01*
X176038200Y-96139000D01*
X176122189Y-96264698D01*
X176504275Y-96520000D01*
X176122189Y-96775302D01*
X175811120Y-97240849D01*
X175701887Y-97790000D01*
X175811120Y-98339151D01*
X176122189Y-98804698D01*
X176504275Y-99060000D01*
X176122189Y-99315302D01*
X175811120Y-99780849D01*
X175701887Y-100330000D01*
X175811120Y-100879151D01*
X176122189Y-101344698D01*
X176504275Y-101600000D01*
X176122189Y-101855302D01*
X175811120Y-102320849D01*
X175701887Y-102870000D01*
X175811120Y-103419151D01*
X176122189Y-103884698D01*
X176504275Y-104140000D01*
X176122189Y-104395302D01*
X175811120Y-104860849D01*
X175701887Y-105410000D01*
X175811120Y-105959151D01*
X176122189Y-106424698D01*
X176504275Y-106680000D01*
X176122189Y-106935302D01*
X175811120Y-107400849D01*
X175701887Y-107950000D01*
X175811120Y-108499151D01*
X176122189Y-108964698D01*
X176504275Y-109220000D01*
X176122189Y-109475302D01*
X175811120Y-109940849D01*
X175701887Y-110490000D01*
X175811120Y-111039151D01*
X176122189Y-111504698D01*
X176504275Y-111760000D01*
X176122189Y-112015302D01*
X175811120Y-112480849D01*
X175701887Y-113030000D01*
X175811120Y-113579151D01*
X176122189Y-114044698D01*
X176504275Y-114300000D01*
X176122189Y-114555302D01*
X175811120Y-115020849D01*
X175701887Y-115570000D01*
X175811120Y-116119151D01*
X176122189Y-116584698D01*
X176504275Y-116840000D01*
X176122189Y-117095302D01*
X175811120Y-117560849D01*
X175701887Y-118110000D01*
X175811120Y-118659151D01*
X176122189Y-119124698D01*
X176504275Y-119380000D01*
X176122189Y-119635302D01*
X175811120Y-120100849D01*
X175701887Y-120650000D01*
X175811120Y-121199151D01*
X176122189Y-121664698D01*
X176504275Y-121920000D01*
X176122189Y-122175302D01*
X175811120Y-122640849D01*
X175701887Y-123190000D01*
X175811120Y-123739151D01*
X176122189Y-124204698D01*
X176124138Y-124206000D01*
X162965862Y-124206000D01*
X162967811Y-124204698D01*
X163278880Y-123739151D01*
X163388113Y-123190000D01*
X163278880Y-122640849D01*
X162967811Y-122175302D01*
X162585725Y-121920000D01*
X162967811Y-121664698D01*
X163278880Y-121199151D01*
X163388113Y-120650000D01*
X163278880Y-120100849D01*
X162967811Y-119635302D01*
X162585725Y-119380000D01*
X162967811Y-119124698D01*
X163278880Y-118659151D01*
X163388113Y-118110000D01*
X163278880Y-117560849D01*
X162967811Y-117095302D01*
X162585725Y-116840000D01*
X162967811Y-116584698D01*
X163278880Y-116119151D01*
X163388113Y-115570000D01*
X163278880Y-115020849D01*
X162967811Y-114555302D01*
X162585725Y-114300000D01*
X162967811Y-114044698D01*
X163278880Y-113579151D01*
X163388113Y-113030000D01*
X163278880Y-112480849D01*
X162967811Y-112015302D01*
X162585725Y-111760000D01*
X162967811Y-111504698D01*
X163278880Y-111039151D01*
X163388113Y-110490000D01*
X163278880Y-109940849D01*
X162967811Y-109475302D01*
X162585725Y-109220000D01*
X162967811Y-108964698D01*
X163278880Y-108499151D01*
X163388113Y-107950000D01*
X163278880Y-107400849D01*
X162967811Y-106935302D01*
X162585725Y-106680000D01*
X162967811Y-106424698D01*
X163278880Y-105959151D01*
X163388113Y-105410000D01*
X163278880Y-104860849D01*
X162967811Y-104395302D01*
X162585725Y-104140000D01*
X162967811Y-103884698D01*
X163278880Y-103419151D01*
X163388113Y-102870000D01*
X163278880Y-102320849D01*
X162967811Y-101855302D01*
X162585725Y-101600000D01*
X162967811Y-101344698D01*
X163278880Y-100879151D01*
X163388113Y-100330000D01*
X163278880Y-99780849D01*
X162967811Y-99315302D01*
X162585725Y-99060000D01*
X162967811Y-98804698D01*
X163278880Y-98339151D01*
X163388113Y-97790000D01*
X163278880Y-97240849D01*
X162967811Y-96775302D01*
X162585725Y-96520000D01*
X162967811Y-96264698D01*
X163278880Y-95799151D01*
X163388113Y-95250000D01*
X163278880Y-94700849D01*
X162967811Y-94235302D01*
X162585725Y-93980000D01*
X162967811Y-93724698D01*
X163278880Y-93259151D01*
X163388113Y-92710000D01*
X163278880Y-92160849D01*
X162967811Y-91695302D01*
X162563297Y-91425014D01*
X162780134Y-91322389D01*
X163156041Y-90907423D01*
X163316904Y-90519039D01*
X163194915Y-90297000D01*
X162052000Y-90297000D01*
X162052000Y-90317000D01*
X161798000Y-90317000D01*
X161798000Y-90297000D01*
X160655085Y-90297000D01*
X160533096Y-90519039D01*
X160693959Y-90907423D01*
X161069866Y-91322389D01*
X161286703Y-91425014D01*
X160882189Y-91695302D01*
X160798200Y-91821000D01*
X151853453Y-91821000D01*
X151739415Y-91650330D01*
X151253234Y-91325474D01*
X150679745Y-91211400D01*
X150310255Y-91211400D01*
X149736766Y-91325474D01*
X149250585Y-91650330D01*
X148925729Y-92136511D01*
X148811655Y-92710000D01*
X148925729Y-93283489D01*
X149250585Y-93769670D01*
X149565366Y-93980000D01*
X149250585Y-94190330D01*
X148925729Y-94676511D01*
X148811655Y-95250000D01*
X148925729Y-95823489D01*
X149250585Y-96309670D01*
X149565366Y-96520000D01*
X149250585Y-96730330D01*
X148925729Y-97216511D01*
X148811655Y-97790000D01*
X148925729Y-98363489D01*
X149250585Y-98849670D01*
X149565366Y-99060000D01*
X149250585Y-99270330D01*
X148925729Y-99756511D01*
X148811655Y-100330000D01*
X148925729Y-100903489D01*
X149250585Y-101389670D01*
X149565366Y-101600000D01*
X149250585Y-101810330D01*
X148925729Y-102296511D01*
X148811655Y-102870000D01*
X148925729Y-103443489D01*
X149250585Y-103929670D01*
X149565366Y-104140000D01*
X149250585Y-104350330D01*
X148925729Y-104836511D01*
X148811655Y-105410000D01*
X148925729Y-105983489D01*
X149250585Y-106469670D01*
X149565366Y-106680000D01*
X149250585Y-106890330D01*
X148925729Y-107376511D01*
X148811655Y-107950000D01*
X148925729Y-108523489D01*
X149250585Y-109009670D01*
X149264913Y-109019243D01*
X149243683Y-109023238D01*
X149027559Y-109162310D01*
X148882569Y-109374510D01*
X148831560Y-109626400D01*
X148831560Y-111353600D01*
X148875838Y-111588917D01*
X149014910Y-111805041D01*
X149227110Y-111950031D01*
X149479000Y-112001040D01*
X151511000Y-112001040D01*
X151746317Y-111956762D01*
X151962441Y-111817690D01*
X152107431Y-111605490D01*
X152153296Y-111379000D01*
X160798200Y-111379000D01*
X160882189Y-111504698D01*
X161264275Y-111760000D01*
X160882189Y-112015302D01*
X160798200Y-112141000D01*
X158115000Y-112141000D01*
X157774794Y-112208671D01*
X157486382Y-112401382D01*
X155581382Y-114306382D01*
X155388671Y-114594794D01*
X155321000Y-114935000D01*
X155321000Y-127635000D01*
X155388671Y-127975206D01*
X155581382Y-128263618D01*
X158000764Y-130683000D01*
X152409550Y-130683000D01*
X152834229Y-130507526D01*
X153998438Y-129345347D01*
X154629280Y-127826111D01*
X154630716Y-126181106D01*
X154002526Y-124660771D01*
X152840347Y-123496562D01*
X151321111Y-122865720D01*
X149676106Y-122864284D01*
X148155771Y-123492474D01*
X146991562Y-124654653D01*
X146812000Y-125087086D01*
X146812000Y-118515000D01*
X148281429Y-118515000D01*
X148281429Y-122485000D01*
X152708572Y-122485000D01*
X152708572Y-118515000D01*
X148281429Y-118515000D01*
X146812000Y-118515000D01*
X146812000Y-89820961D01*
X160533096Y-89820961D01*
X160655085Y-90043000D01*
X161798000Y-90043000D01*
X161798000Y-88899371D01*
X162052000Y-88899371D01*
X162052000Y-90043000D01*
X163194915Y-90043000D01*
X163316904Y-89820961D01*
X163156041Y-89432577D01*
X162780134Y-89017611D01*
X162274041Y-88778086D01*
X162052000Y-88899371D01*
X161798000Y-88899371D01*
X161575959Y-88778086D01*
X161069866Y-89017611D01*
X160693959Y-89432577D01*
X160533096Y-89820961D01*
X146812000Y-89820961D01*
X146812000Y-85544078D01*
X165152378Y-85544078D01*
X165181917Y-86054428D01*
X165320389Y-86388729D01*
X165550984Y-86444410D01*
X166270395Y-85725000D01*
X165550984Y-85005590D01*
X165320389Y-85061271D01*
X165152378Y-85544078D01*
X146812000Y-85544078D01*
X146812000Y-77089016D01*
X156760590Y-77089016D01*
X156816271Y-77319611D01*
X157299078Y-77487622D01*
X157809428Y-77458083D01*
X158143729Y-77319611D01*
X158199410Y-77089016D01*
X157480000Y-76369605D01*
X156760590Y-77089016D01*
X146812000Y-77089016D01*
X146812000Y-76009078D01*
X156182378Y-76009078D01*
X156211917Y-76519428D01*
X156350389Y-76853729D01*
X156580984Y-76909410D01*
X157300395Y-76190000D01*
X157659605Y-76190000D01*
X158379016Y-76909410D01*
X158609611Y-76853729D01*
X158777622Y-76370922D01*
X158748083Y-75860572D01*
X158609611Y-75526271D01*
X158379016Y-75470590D01*
X157659605Y-76190000D01*
X157300395Y-76190000D01*
X156580984Y-75470590D01*
X156350389Y-75526271D01*
X156182378Y-76009078D01*
X146812000Y-76009078D01*
X146812000Y-75290984D01*
X156760590Y-75290984D01*
X157480000Y-76010395D01*
X158199410Y-75290984D01*
X158143729Y-75060389D01*
X157660922Y-74892378D01*
X157150572Y-74921917D01*
X156816271Y-75060389D01*
X156760590Y-75290984D01*
X146812000Y-75290984D01*
X146812000Y-71740000D01*
X156182560Y-71740000D01*
X156182560Y-73040000D01*
X156226838Y-73275317D01*
X156365910Y-73491441D01*
X156578110Y-73636431D01*
X156830000Y-73687440D01*
X158130000Y-73687440D01*
X158365317Y-73643162D01*
X158581441Y-73504090D01*
X158726431Y-73291890D01*
X158777440Y-73040000D01*
X158777440Y-71740000D01*
X158733162Y-71504683D01*
X158594090Y-71288559D01*
X158381890Y-71143569D01*
X158130000Y-71092560D01*
X156830000Y-71092560D01*
X156594683Y-71136838D01*
X156378559Y-71275910D01*
X156233569Y-71488110D01*
X156182560Y-71740000D01*
X146812000Y-71740000D01*
X146812000Y-70844027D01*
X166185032Y-70844027D01*
X166433179Y-71373490D01*
X166851152Y-71755000D01*
X166433179Y-72136510D01*
X166185032Y-72665973D01*
X166305531Y-72898000D01*
X167513000Y-72898000D01*
X167513000Y-70612000D01*
X167767000Y-70612000D01*
X167767000Y-72898000D01*
X170053000Y-72898000D01*
X170053000Y-70612000D01*
X170307000Y-70612000D01*
X170307000Y-72898000D01*
X171514469Y-72898000D01*
X171634968Y-72665973D01*
X171386821Y-72136510D01*
X170968848Y-71755000D01*
X171386821Y-71373490D01*
X171634968Y-70844027D01*
X171514469Y-70612000D01*
X170307000Y-70612000D01*
X170053000Y-70612000D01*
X167767000Y-70612000D01*
X167513000Y-70612000D01*
X166305531Y-70612000D01*
X166185032Y-70844027D01*
X146812000Y-70844027D01*
X146812000Y-66049550D01*
X146987474Y-66474229D01*
X148149653Y-67638438D01*
X149668889Y-68269280D01*
X151313894Y-68270716D01*
X152834229Y-67642526D01*
X153998438Y-66480347D01*
X154629280Y-64961111D01*
X154629646Y-64541400D01*
X166128960Y-64541400D01*
X166128960Y-66268600D01*
X166173238Y-66503917D01*
X166312310Y-66720041D01*
X166524510Y-66865031D01*
X166568345Y-66873908D01*
X166255474Y-67342152D01*
X166141400Y-67915641D01*
X166141400Y-67974359D01*
X166255474Y-68547848D01*
X166580330Y-69034029D01*
X166851161Y-69214992D01*
X166433179Y-69596510D01*
X166185032Y-70125973D01*
X166305531Y-70358000D01*
X167513000Y-70358000D01*
X167513000Y-70338000D01*
X167767000Y-70338000D01*
X167767000Y-70358000D01*
X170053000Y-70358000D01*
X170053000Y-70338000D01*
X170307000Y-70338000D01*
X170307000Y-70358000D01*
X171514469Y-70358000D01*
X171634968Y-70125973D01*
X171386821Y-69596510D01*
X170968839Y-69214992D01*
X171239670Y-69034029D01*
X171564526Y-68547848D01*
X171678600Y-67974359D01*
X171678600Y-67915641D01*
X171564526Y-67342152D01*
X171239670Y-66855971D01*
X170968828Y-66675000D01*
X171239670Y-66494029D01*
X171564526Y-66007848D01*
X171678600Y-65434359D01*
X171678600Y-65375641D01*
X171564526Y-64802152D01*
X171239670Y-64315971D01*
X170968828Y-64135000D01*
X177787560Y-64135000D01*
X177787560Y-66675000D01*
X177831838Y-66910317D01*
X177970910Y-67126441D01*
X178183110Y-67271431D01*
X178435000Y-67322440D01*
X180975000Y-67322440D01*
X181210317Y-67278162D01*
X181426441Y-67139090D01*
X181571431Y-66926890D01*
X181606689Y-66752777D01*
X183616828Y-66752777D01*
X183748520Y-67047657D01*
X184456036Y-67319261D01*
X185213632Y-67299436D01*
X185821480Y-67047657D01*
X185953172Y-66752777D01*
X184785000Y-65584605D01*
X183616828Y-66752777D01*
X181606689Y-66752777D01*
X181622440Y-66675000D01*
X181622440Y-65076036D01*
X182870739Y-65076036D01*
X182890564Y-65833632D01*
X183142343Y-66441480D01*
X183437223Y-66573172D01*
X184605395Y-65405000D01*
X184964605Y-65405000D01*
X186132777Y-66573172D01*
X186427657Y-66441480D01*
X186699261Y-65733964D01*
X186679436Y-64976368D01*
X186427657Y-64368520D01*
X186132777Y-64236828D01*
X184964605Y-65405000D01*
X184605395Y-65405000D01*
X183437223Y-64236828D01*
X183142343Y-64368520D01*
X182870739Y-65076036D01*
X181622440Y-65076036D01*
X181622440Y-64135000D01*
X181607806Y-64057223D01*
X183616828Y-64057223D01*
X184785000Y-65225395D01*
X185953172Y-64057223D01*
X185821480Y-63762343D01*
X185113964Y-63490739D01*
X184356368Y-63510564D01*
X183748520Y-63762343D01*
X183616828Y-64057223D01*
X181607806Y-64057223D01*
X181578162Y-63899683D01*
X181439090Y-63683559D01*
X181226890Y-63538569D01*
X180975000Y-63487560D01*
X178435000Y-63487560D01*
X178199683Y-63531838D01*
X177983559Y-63670910D01*
X177838569Y-63883110D01*
X177787560Y-64135000D01*
X170968828Y-64135000D01*
X170753489Y-63991115D01*
X170180000Y-63877041D01*
X169606511Y-63991115D01*
X169120330Y-64315971D01*
X169111195Y-64329642D01*
X169106762Y-64306083D01*
X168967690Y-64089959D01*
X168755490Y-63944969D01*
X168503600Y-63893960D01*
X166776400Y-63893960D01*
X166541083Y-63938238D01*
X166324959Y-64077310D01*
X166179969Y-64289510D01*
X166128960Y-64541400D01*
X154629646Y-64541400D01*
X154630716Y-63316106D01*
X154002526Y-61795771D01*
X152840347Y-60631562D01*
X152407914Y-60452000D01*
X190490450Y-60452000D01*
X190065771Y-60627474D01*
X190065771Y-60627474D01*
G37*
X190065771Y-60627474D02*
X188901562Y-61789653D01*
X188270720Y-63308889D01*
X188269284Y-64953894D01*
X188897474Y-66474229D01*
X190059653Y-67638438D01*
X191578889Y-68269280D01*
X193223894Y-68270716D01*
X194744229Y-67642526D01*
X195908438Y-66480347D01*
X196035294Y-66174844D01*
X195512008Y-124259553D01*
X194750347Y-123496562D01*
X193231111Y-122865720D01*
X191586106Y-122864284D01*
X191350673Y-122961563D01*
X192173030Y-122139206D01*
X192220255Y-122148600D01*
X192589745Y-122148600D01*
X193163234Y-122034526D01*
X193649415Y-121709670D01*
X193974271Y-121223489D01*
X194088345Y-120650000D01*
X193974271Y-120076511D01*
X193649415Y-119590330D01*
X193334634Y-119380000D01*
X193649415Y-119169670D01*
X193974271Y-118683489D01*
X194088345Y-118110000D01*
X193974271Y-117536511D01*
X193649415Y-117050330D01*
X193334634Y-116840000D01*
X193649415Y-116629670D01*
X193974271Y-116143489D01*
X194088345Y-115570000D01*
X193974271Y-114996511D01*
X193649415Y-114510330D01*
X193334634Y-114300000D01*
X193649415Y-114089670D01*
X193974271Y-113603489D01*
X194088345Y-113030000D01*
X193974271Y-112456511D01*
X193649415Y-111970330D01*
X193334634Y-111760000D01*
X193649415Y-111549670D01*
X193974271Y-111063489D01*
X194088345Y-110490000D01*
X193974271Y-109916511D01*
X193649415Y-109430330D01*
X193334634Y-109220000D01*
X193649415Y-109009670D01*
X193974271Y-108523489D01*
X194088345Y-107950000D01*
X193974271Y-107376511D01*
X193649415Y-106890330D01*
X193334634Y-106680000D01*
X193649415Y-106469670D01*
X193974271Y-105983489D01*
X194088345Y-105410000D01*
X193974271Y-104836511D01*
X193649415Y-104350330D01*
X193334634Y-104140000D01*
X193649415Y-103929670D01*
X193974271Y-103443489D01*
X194088345Y-102870000D01*
X193974271Y-102296511D01*
X193649415Y-101810330D01*
X193334634Y-101600000D01*
X193649415Y-101389670D01*
X193974271Y-100903489D01*
X194088345Y-100330000D01*
X193974271Y-99756511D01*
X193649415Y-99270330D01*
X193334634Y-99060000D01*
X193649415Y-98849670D01*
X193974271Y-98363489D01*
X194088345Y-97790000D01*
X193974271Y-97216511D01*
X193649415Y-96730330D01*
X193334634Y-96520000D01*
X193649415Y-96309670D01*
X193974271Y-95823489D01*
X194088345Y-95250000D01*
X193974271Y-94676511D01*
X193649415Y-94190330D01*
X193334634Y-93980000D01*
X193649415Y-93769670D01*
X193974271Y-93283489D01*
X194088345Y-92710000D01*
X193974271Y-92136511D01*
X193649415Y-91650330D01*
X193334634Y-91440000D01*
X193649415Y-91229670D01*
X193974271Y-90743489D01*
X194088345Y-90170000D01*
X193974271Y-89596511D01*
X193649415Y-89110330D01*
X193334634Y-88900000D01*
X193649415Y-88689670D01*
X193974271Y-88203489D01*
X194088345Y-87630000D01*
X193974271Y-87056511D01*
X193649415Y-86570330D01*
X193334634Y-86360000D01*
X193649415Y-86149670D01*
X193974271Y-85663489D01*
X194088345Y-85090000D01*
X193974271Y-84516511D01*
X193649415Y-84030330D01*
X193635087Y-84020757D01*
X193656317Y-84016762D01*
X193872441Y-83877690D01*
X194017431Y-83665490D01*
X194068440Y-83413600D01*
X194068440Y-81686400D01*
X194024162Y-81451083D01*
X193885090Y-81234959D01*
X193672890Y-81089969D01*
X193421000Y-81038960D01*
X191389000Y-81038960D01*
X191153683Y-81083238D01*
X190937559Y-81222310D01*
X190792569Y-81434510D01*
X190741560Y-81686400D01*
X190741560Y-82956204D01*
X178598191Y-95099573D01*
X178518880Y-94700849D01*
X178207811Y-94235302D01*
X177825725Y-93980000D01*
X178207811Y-93724698D01*
X178518880Y-93259151D01*
X178628113Y-92710000D01*
X178518880Y-92160849D01*
X178207811Y-91695302D01*
X177825725Y-91440000D01*
X178207811Y-91184698D01*
X178518880Y-90719151D01*
X178628113Y-90170000D01*
X178518880Y-89620849D01*
X178207811Y-89155302D01*
X177742264Y-88844233D01*
X177193113Y-88735000D01*
X177136887Y-88735000D01*
X176587736Y-88844233D01*
X176122189Y-89155302D01*
X175811120Y-89620849D01*
X175701887Y-90170000D01*
X175811120Y-90719151D01*
X176122189Y-91184698D01*
X176504275Y-91440000D01*
X176122189Y-91695302D01*
X176038200Y-91821000D01*
X173088236Y-91821000D01*
X171069000Y-89801764D01*
X171069000Y-87022440D01*
X172100000Y-87022440D01*
X172335317Y-86978162D01*
X172551441Y-86839090D01*
X172696431Y-86626890D01*
X172747440Y-86375000D01*
X172747440Y-85075000D01*
X172703162Y-84839683D01*
X172564090Y-84623559D01*
X172351890Y-84478569D01*
X172100000Y-84427560D01*
X171069000Y-84427560D01*
X171069000Y-79308067D01*
X171239670Y-79194029D01*
X171564526Y-78707848D01*
X171678600Y-78134359D01*
X171678600Y-78075641D01*
X171564526Y-77502152D01*
X171239670Y-77015971D01*
X170968828Y-76835000D01*
X171239670Y-76654029D01*
X171564526Y-76167848D01*
X171678600Y-75594359D01*
X171678600Y-75535641D01*
X171564526Y-74962152D01*
X171239670Y-74475971D01*
X170968839Y-74295008D01*
X171386821Y-73913490D01*
X171634968Y-73384027D01*
X171514469Y-73152000D01*
X170307000Y-73152000D01*
X170307000Y-73172000D01*
X170053000Y-73172000D01*
X170053000Y-73152000D01*
X167767000Y-73152000D01*
X167767000Y-73172000D01*
X167513000Y-73172000D01*
X167513000Y-73152000D01*
X166305531Y-73152000D01*
X166185032Y-73384027D01*
X166433179Y-73913490D01*
X166851161Y-74295008D01*
X166580330Y-74475971D01*
X166255474Y-74962152D01*
X166141400Y-75535641D01*
X166141400Y-75594359D01*
X166255474Y-76167848D01*
X166580330Y-76654029D01*
X166851172Y-76835000D01*
X166580330Y-77015971D01*
X166255474Y-77502152D01*
X166141400Y-78075641D01*
X166141400Y-78134359D01*
X166255474Y-78707848D01*
X166580330Y-79194029D01*
X166751000Y-79308067D01*
X166751000Y-84469164D01*
X166630922Y-84427378D01*
X166120572Y-84456917D01*
X165786271Y-84595389D01*
X165730590Y-84825984D01*
X166450000Y-85545395D01*
X166464143Y-85531253D01*
X166643748Y-85710858D01*
X166629605Y-85725000D01*
X166643748Y-85739143D01*
X166464143Y-85918748D01*
X166450000Y-85904605D01*
X165730590Y-86624016D01*
X165786271Y-86854611D01*
X166269078Y-87022622D01*
X166751000Y-86994728D01*
X166751000Y-91440000D01*
X166818671Y-91780206D01*
X167011382Y-92068618D01*
X170821382Y-95878618D01*
X171109795Y-96071330D01*
X171450000Y-96139000D01*
X176038200Y-96139000D01*
X176122189Y-96264698D01*
X176504275Y-96520000D01*
X176122189Y-96775302D01*
X175811120Y-97240849D01*
X175701887Y-97790000D01*
X175811120Y-98339151D01*
X176122189Y-98804698D01*
X176504275Y-99060000D01*
X176122189Y-99315302D01*
X175811120Y-99780849D01*
X175701887Y-100330000D01*
X175811120Y-100879151D01*
X176122189Y-101344698D01*
X176504275Y-101600000D01*
X176122189Y-101855302D01*
X175811120Y-102320849D01*
X175701887Y-102870000D01*
X175811120Y-103419151D01*
X176122189Y-103884698D01*
X176504275Y-104140000D01*
X176122189Y-104395302D01*
X175811120Y-104860849D01*
X175701887Y-105410000D01*
X175811120Y-105959151D01*
X176122189Y-106424698D01*
X176504275Y-106680000D01*
X176122189Y-106935302D01*
X175811120Y-107400849D01*
X175701887Y-107950000D01*
X175811120Y-108499151D01*
X176122189Y-108964698D01*
X176504275Y-109220000D01*
X176122189Y-109475302D01*
X175811120Y-109940849D01*
X175701887Y-110490000D01*
X175811120Y-111039151D01*
X176122189Y-111504698D01*
X176504275Y-111760000D01*
X176122189Y-112015302D01*
X175811120Y-112480849D01*
X175701887Y-113030000D01*
X175811120Y-113579151D01*
X176122189Y-114044698D01*
X176504275Y-114300000D01*
X176122189Y-114555302D01*
X175811120Y-115020849D01*
X175701887Y-115570000D01*
X175811120Y-116119151D01*
X176122189Y-116584698D01*
X176504275Y-116840000D01*
X176122189Y-117095302D01*
X175811120Y-117560849D01*
X175701887Y-118110000D01*
X175811120Y-118659151D01*
X176122189Y-119124698D01*
X176504275Y-119380000D01*
X176122189Y-119635302D01*
X175811120Y-120100849D01*
X175701887Y-120650000D01*
X175811120Y-121199151D01*
X176122189Y-121664698D01*
X176504275Y-121920000D01*
X176122189Y-122175302D01*
X175811120Y-122640849D01*
X175701887Y-123190000D01*
X175811120Y-123739151D01*
X176122189Y-124204698D01*
X176124138Y-124206000D01*
X162965862Y-124206000D01*
X162967811Y-124204698D01*
X163278880Y-123739151D01*
X163388113Y-123190000D01*
X163278880Y-122640849D01*
X162967811Y-122175302D01*
X162585725Y-121920000D01*
X162967811Y-121664698D01*
X163278880Y-121199151D01*
X163388113Y-120650000D01*
X163278880Y-120100849D01*
X162967811Y-119635302D01*
X162585725Y-119380000D01*
X162967811Y-119124698D01*
X163278880Y-118659151D01*
X163388113Y-118110000D01*
X163278880Y-117560849D01*
X162967811Y-117095302D01*
X162585725Y-116840000D01*
X162967811Y-116584698D01*
X163278880Y-116119151D01*
X163388113Y-115570000D01*
X163278880Y-115020849D01*
X162967811Y-114555302D01*
X162585725Y-114300000D01*
X162967811Y-114044698D01*
X163278880Y-113579151D01*
X163388113Y-113030000D01*
X163278880Y-112480849D01*
X162967811Y-112015302D01*
X162585725Y-111760000D01*
X162967811Y-111504698D01*
X163278880Y-111039151D01*
X163388113Y-110490000D01*
X163278880Y-109940849D01*
X162967811Y-109475302D01*
X162585725Y-109220000D01*
X162967811Y-108964698D01*
X163278880Y-108499151D01*
X163388113Y-107950000D01*
X163278880Y-107400849D01*
X162967811Y-106935302D01*
X162585725Y-106680000D01*
X162967811Y-106424698D01*
X163278880Y-105959151D01*
X163388113Y-105410000D01*
X163278880Y-104860849D01*
X162967811Y-104395302D01*
X162585725Y-104140000D01*
X162967811Y-103884698D01*
X163278880Y-103419151D01*
X163388113Y-102870000D01*
X163278880Y-102320849D01*
X162967811Y-101855302D01*
X162585725Y-101600000D01*
X162967811Y-101344698D01*
X163278880Y-100879151D01*
X163388113Y-100330000D01*
X163278880Y-99780849D01*
X162967811Y-99315302D01*
X162585725Y-99060000D01*
X162967811Y-98804698D01*
X163278880Y-98339151D01*
X163388113Y-97790000D01*
X163278880Y-97240849D01*
X162967811Y-96775302D01*
X162585725Y-96520000D01*
X162967811Y-96264698D01*
X163278880Y-95799151D01*
X163388113Y-95250000D01*
X163278880Y-94700849D01*
X162967811Y-94235302D01*
X162585725Y-93980000D01*
X162967811Y-93724698D01*
X163278880Y-93259151D01*
X163388113Y-92710000D01*
X163278880Y-92160849D01*
X162967811Y-91695302D01*
X162563297Y-91425014D01*
X162780134Y-91322389D01*
X163156041Y-90907423D01*
X163316904Y-90519039D01*
X163194915Y-90297000D01*
X162052000Y-90297000D01*
X162052000Y-90317000D01*
X161798000Y-90317000D01*
X161798000Y-90297000D01*
X160655085Y-90297000D01*
X160533096Y-90519039D01*
X160693959Y-90907423D01*
X161069866Y-91322389D01*
X161286703Y-91425014D01*
X160882189Y-91695302D01*
X160798200Y-91821000D01*
X151853453Y-91821000D01*
X151739415Y-91650330D01*
X151253234Y-91325474D01*
X150679745Y-91211400D01*
X150310255Y-91211400D01*
X149736766Y-91325474D01*
X149250585Y-91650330D01*
X148925729Y-92136511D01*
X148811655Y-92710000D01*
X148925729Y-93283489D01*
X149250585Y-93769670D01*
X149565366Y-93980000D01*
X149250585Y-94190330D01*
X148925729Y-94676511D01*
X148811655Y-95250000D01*
X148925729Y-95823489D01*
X149250585Y-96309670D01*
X149565366Y-96520000D01*
X149250585Y-96730330D01*
X148925729Y-97216511D01*
X148811655Y-97790000D01*
X148925729Y-98363489D01*
X149250585Y-98849670D01*
X149565366Y-99060000D01*
X149250585Y-99270330D01*
X148925729Y-99756511D01*
X148811655Y-100330000D01*
X148925729Y-100903489D01*
X149250585Y-101389670D01*
X149565366Y-101600000D01*
X149250585Y-101810330D01*
X148925729Y-102296511D01*
X148811655Y-102870000D01*
X148925729Y-103443489D01*
X149250585Y-103929670D01*
X149565366Y-104140000D01*
X149250585Y-104350330D01*
X148925729Y-104836511D01*
X148811655Y-105410000D01*
X148925729Y-105983489D01*
X149250585Y-106469670D01*
X149565366Y-106680000D01*
X149250585Y-106890330D01*
X148925729Y-107376511D01*
X148811655Y-107950000D01*
X148925729Y-108523489D01*
X149250585Y-109009670D01*
X149264913Y-109019243D01*
X149243683Y-109023238D01*
X149027559Y-109162310D01*
X148882569Y-109374510D01*
X148831560Y-109626400D01*
X148831560Y-111353600D01*
X148875838Y-111588917D01*
X149014910Y-111805041D01*
X149227110Y-111950031D01*
X149479000Y-112001040D01*
X151511000Y-112001040D01*
X151746317Y-111956762D01*
X151962441Y-111817690D01*
X152107431Y-111605490D01*
X152153296Y-111379000D01*
X160798200Y-111379000D01*
X160882189Y-111504698D01*
X161264275Y-111760000D01*
X160882189Y-112015302D01*
X160798200Y-112141000D01*
X158115000Y-112141000D01*
X157774794Y-112208671D01*
X157486382Y-112401382D01*
X155581382Y-114306382D01*
X155388671Y-114594794D01*
X155321000Y-114935000D01*
X155321000Y-127635000D01*
X155388671Y-127975206D01*
X155581382Y-128263618D01*
X158000764Y-130683000D01*
X152409550Y-130683000D01*
X152834229Y-130507526D01*
X153998438Y-129345347D01*
X154629280Y-127826111D01*
X154630716Y-126181106D01*
X154002526Y-124660771D01*
X152840347Y-123496562D01*
X151321111Y-122865720D01*
X149676106Y-122864284D01*
X148155771Y-123492474D01*
X146991562Y-124654653D01*
X146812000Y-125087086D01*
X146812000Y-118515000D01*
X148281429Y-118515000D01*
X148281429Y-122485000D01*
X152708572Y-122485000D01*
X152708572Y-118515000D01*
X148281429Y-118515000D01*
X146812000Y-118515000D01*
X146812000Y-89820961D01*
X160533096Y-89820961D01*
X160655085Y-90043000D01*
X161798000Y-90043000D01*
X161798000Y-88899371D01*
X162052000Y-88899371D01*
X162052000Y-90043000D01*
X163194915Y-90043000D01*
X163316904Y-89820961D01*
X163156041Y-89432577D01*
X162780134Y-89017611D01*
X162274041Y-88778086D01*
X162052000Y-88899371D01*
X161798000Y-88899371D01*
X161575959Y-88778086D01*
X161069866Y-89017611D01*
X160693959Y-89432577D01*
X160533096Y-89820961D01*
X146812000Y-89820961D01*
X146812000Y-85544078D01*
X165152378Y-85544078D01*
X165181917Y-86054428D01*
X165320389Y-86388729D01*
X165550984Y-86444410D01*
X166270395Y-85725000D01*
X165550984Y-85005590D01*
X165320389Y-85061271D01*
X165152378Y-85544078D01*
X146812000Y-85544078D01*
X146812000Y-77089016D01*
X156760590Y-77089016D01*
X156816271Y-77319611D01*
X157299078Y-77487622D01*
X157809428Y-77458083D01*
X158143729Y-77319611D01*
X158199410Y-77089016D01*
X157480000Y-76369605D01*
X156760590Y-77089016D01*
X146812000Y-77089016D01*
X146812000Y-76009078D01*
X156182378Y-76009078D01*
X156211917Y-76519428D01*
X156350389Y-76853729D01*
X156580984Y-76909410D01*
X157300395Y-76190000D01*
X157659605Y-76190000D01*
X158379016Y-76909410D01*
X158609611Y-76853729D01*
X158777622Y-76370922D01*
X158748083Y-75860572D01*
X158609611Y-75526271D01*
X158379016Y-75470590D01*
X157659605Y-76190000D01*
X157300395Y-76190000D01*
X156580984Y-75470590D01*
X156350389Y-75526271D01*
X156182378Y-76009078D01*
X146812000Y-76009078D01*
X146812000Y-75290984D01*
X156760590Y-75290984D01*
X157480000Y-76010395D01*
X158199410Y-75290984D01*
X158143729Y-75060389D01*
X157660922Y-74892378D01*
X157150572Y-74921917D01*
X156816271Y-75060389D01*
X156760590Y-75290984D01*
X146812000Y-75290984D01*
X146812000Y-71740000D01*
X156182560Y-71740000D01*
X156182560Y-73040000D01*
X156226838Y-73275317D01*
X156365910Y-73491441D01*
X156578110Y-73636431D01*
X156830000Y-73687440D01*
X158130000Y-73687440D01*
X158365317Y-73643162D01*
X158581441Y-73504090D01*
X158726431Y-73291890D01*
X158777440Y-73040000D01*
X158777440Y-71740000D01*
X158733162Y-71504683D01*
X158594090Y-71288559D01*
X158381890Y-71143569D01*
X158130000Y-71092560D01*
X156830000Y-71092560D01*
X156594683Y-71136838D01*
X156378559Y-71275910D01*
X156233569Y-71488110D01*
X156182560Y-71740000D01*
X146812000Y-71740000D01*
X146812000Y-70844027D01*
X166185032Y-70844027D01*
X166433179Y-71373490D01*
X166851152Y-71755000D01*
X166433179Y-72136510D01*
X166185032Y-72665973D01*
X166305531Y-72898000D01*
X167513000Y-72898000D01*
X167513000Y-70612000D01*
X167767000Y-70612000D01*
X167767000Y-72898000D01*
X170053000Y-72898000D01*
X170053000Y-70612000D01*
X170307000Y-70612000D01*
X170307000Y-72898000D01*
X171514469Y-72898000D01*
X171634968Y-72665973D01*
X171386821Y-72136510D01*
X170968848Y-71755000D01*
X171386821Y-71373490D01*
X171634968Y-70844027D01*
X171514469Y-70612000D01*
X170307000Y-70612000D01*
X170053000Y-70612000D01*
X167767000Y-70612000D01*
X167513000Y-70612000D01*
X166305531Y-70612000D01*
X166185032Y-70844027D01*
X146812000Y-70844027D01*
X146812000Y-66049550D01*
X146987474Y-66474229D01*
X148149653Y-67638438D01*
X149668889Y-68269280D01*
X151313894Y-68270716D01*
X152834229Y-67642526D01*
X153998438Y-66480347D01*
X154629280Y-64961111D01*
X154629646Y-64541400D01*
X166128960Y-64541400D01*
X166128960Y-66268600D01*
X166173238Y-66503917D01*
X166312310Y-66720041D01*
X166524510Y-66865031D01*
X166568345Y-66873908D01*
X166255474Y-67342152D01*
X166141400Y-67915641D01*
X166141400Y-67974359D01*
X166255474Y-68547848D01*
X166580330Y-69034029D01*
X166851161Y-69214992D01*
X166433179Y-69596510D01*
X166185032Y-70125973D01*
X166305531Y-70358000D01*
X167513000Y-70358000D01*
X167513000Y-70338000D01*
X167767000Y-70338000D01*
X167767000Y-70358000D01*
X170053000Y-70358000D01*
X170053000Y-70338000D01*
X170307000Y-70338000D01*
X170307000Y-70358000D01*
X171514469Y-70358000D01*
X171634968Y-70125973D01*
X171386821Y-69596510D01*
X170968839Y-69214992D01*
X171239670Y-69034029D01*
X171564526Y-68547848D01*
X171678600Y-67974359D01*
X171678600Y-67915641D01*
X171564526Y-67342152D01*
X171239670Y-66855971D01*
X170968828Y-66675000D01*
X171239670Y-66494029D01*
X171564526Y-66007848D01*
X171678600Y-65434359D01*
X171678600Y-65375641D01*
X171564526Y-64802152D01*
X171239670Y-64315971D01*
X170968828Y-64135000D01*
X177787560Y-64135000D01*
X177787560Y-66675000D01*
X177831838Y-66910317D01*
X177970910Y-67126441D01*
X178183110Y-67271431D01*
X178435000Y-67322440D01*
X180975000Y-67322440D01*
X181210317Y-67278162D01*
X181426441Y-67139090D01*
X181571431Y-66926890D01*
X181606689Y-66752777D01*
X183616828Y-66752777D01*
X183748520Y-67047657D01*
X184456036Y-67319261D01*
X185213632Y-67299436D01*
X185821480Y-67047657D01*
X185953172Y-66752777D01*
X184785000Y-65584605D01*
X183616828Y-66752777D01*
X181606689Y-66752777D01*
X181622440Y-66675000D01*
X181622440Y-65076036D01*
X182870739Y-65076036D01*
X182890564Y-65833632D01*
X183142343Y-66441480D01*
X183437223Y-66573172D01*
X184605395Y-65405000D01*
X184964605Y-65405000D01*
X186132777Y-66573172D01*
X186427657Y-66441480D01*
X186699261Y-65733964D01*
X186679436Y-64976368D01*
X186427657Y-64368520D01*
X186132777Y-64236828D01*
X184964605Y-65405000D01*
X184605395Y-65405000D01*
X183437223Y-64236828D01*
X183142343Y-64368520D01*
X182870739Y-65076036D01*
X181622440Y-65076036D01*
X181622440Y-64135000D01*
X181607806Y-64057223D01*
X183616828Y-64057223D01*
X184785000Y-65225395D01*
X185953172Y-64057223D01*
X185821480Y-63762343D01*
X185113964Y-63490739D01*
X184356368Y-63510564D01*
X183748520Y-63762343D01*
X183616828Y-64057223D01*
X181607806Y-64057223D01*
X181578162Y-63899683D01*
X181439090Y-63683559D01*
X181226890Y-63538569D01*
X180975000Y-63487560D01*
X178435000Y-63487560D01*
X178199683Y-63531838D01*
X177983559Y-63670910D01*
X177838569Y-63883110D01*
X177787560Y-64135000D01*
X170968828Y-64135000D01*
X170753489Y-63991115D01*
X170180000Y-63877041D01*
X169606511Y-63991115D01*
X169120330Y-64315971D01*
X169111195Y-64329642D01*
X169106762Y-64306083D01*
X168967690Y-64089959D01*
X168755490Y-63944969D01*
X168503600Y-63893960D01*
X166776400Y-63893960D01*
X166541083Y-63938238D01*
X166324959Y-64077310D01*
X166179969Y-64289510D01*
X166128960Y-64541400D01*
X154629646Y-64541400D01*
X154630716Y-63316106D01*
X154002526Y-61795771D01*
X152840347Y-60631562D01*
X152407914Y-60452000D01*
X190490450Y-60452000D01*
X190065771Y-60627474D01*
M02*
